<svg height="100%" version="1.1" width="100%" xmlns="http://www.w3.org/2000/svg" preserveAspectRatio="xMidYMid meet" viewBox="0 0 600 442" xmlns:xlink="http://www.w3.org/1999/xlink"><desc>Created with Snap</desc><defs/><g id="root" contentwidth="188.60000000000002" contentheight="210.5">
          <rect class="background" height="2000%" width="2000%" y="-1000%" x="-1000%" style="" fill="#ffffff"/>
          <rect class="watermarklayer" height="100%" width="100%" y="0" x="0" style="" fill="none"/>
          <g class="content" id="content" transform="matrix(1,0,0,1,2.2,22.75)">
            <g class="icon">
            <svg height="98" version="1.1" width="141" xmlns="http://www.w3.org/2000/svg" x="229" y="93" preserveAspectRatio="none" transform="matrix(1,0,0,1,0,0)"><desc>Created with Snap</desc><defs/><svg xmlns="http://www.w3.org/2000/svg" viewBox="229 93 141 98"><defs><linearGradient x1="100%" y1="57%" x2="6%" y2="55%" id="prefix-o_--linearGradient-1"><stop stop-color="#A0A0A0" offset="0%"/><stop stop-color="#E7E7E7" offset="23%"/><stop stop-color="#C036F9" offset="60%"/><stop stop-color="#4401B5" offset="100%"/></linearGradient><linearGradient x1="97%" y1="61%" x2="5%" y2="36%" id="prefix-o_--linearGradient-2"><stop stop-color="#BD38FB" offset="0%"/><stop stop-color="#4300B4" offset="48%"/><stop stop-color="#EEE" offset="82%"/><stop stop-color="#AFAFB3" offset="100%"/></linearGradient><linearGradient x1="65%" y1="16%" x2="33%" y2="85%" id="prefix-o_--linearGradient-3"><stop stop-color="#4300B4" offset="0%"/><stop stop-color="#BD38FB" offset="100%"/></linearGradient></defs><path d="m313.5 97.083 42.581 24.584a28 28 0 0 1 14 24.249v45a28 28 0 0 0-14-24.249L313.5 142.083a28 28 0 0 0-28 0l-42.581 24.584a28 28 0 0 0-14 24.249v-45a28 28 0 0 1 14-24.249L285.5 97.083a28 28 0 0 1 28 0Z" id="prefix-o_--形状结合备份-2" fill="url(#prefix-o_--linearGradient-1)"/></svg></svg><svg height="98" version="1.1" width="141" xmlns="http://www.w3.org/2000/svg" x="229" y="150" preserveAspectRatio="none" transform="matrix(1,0,0,1,0,0)"><desc>Created with Snap</desc><defs/><svg xmlns="http://www.w3.org/2000/svg" viewBox="229 150 141 98"><defs><linearGradient x1="100%" y1="57%" x2="6%" y2="55%" id="prefix-rjA-linearGradient-1"><stop stop-color="#A0A0A0" offset="0%"/><stop stop-color="#E7E7E7" offset="23%"/><stop stop-color="#C036F9" offset="60%"/><stop stop-color="#4401B5" offset="100%"/></linearGradient><linearGradient x1="97%" y1="61%" x2="5%" y2="36%" id="prefix-rjA-linearGradient-2"><stop stop-color="#BD38FB" offset="0%"/><stop stop-color="#4300B4" offset="48%"/><stop stop-color="#EEE" offset="82%"/><stop stop-color="#AFAFB3" offset="100%"/></linearGradient><linearGradient x1="65%" y1="16%" x2="33%" y2="85%" id="prefix-rjA-linearGradient-3"><stop stop-color="#4300B4" offset="0%"/><stop stop-color="#BD38FB" offset="100%"/></linearGradient></defs><path d="M228.923 190.455a28.006 28.006 0 0 1 8.877-19.997 28 28 0 0 0 5.119 3.79l42.581 24.585.42.238a28 28 0 0 0 27.58-.238l42.581-24.584.398-.234A28 28 0 0 0 370.08 150v45a28 28 0 0 1-14 24.249l-42.58 24.584a28 28 0 0 1-28 0l-42.581-24.584a28 28 0 0 1-14-24.249v-4.084Z" id="prefix-rjA-形状结合备份-3" fill="url(#prefix-rjA-linearGradient-2)"/></svg></svg><svg height="154" version="1.1" width="141" xmlns="http://www.w3.org/2000/svg" x="229" y="93" preserveAspectRatio="none" transform="matrix(1,0,0,1,0,0)"><desc>Created with Snap</desc><defs/><svg xmlns="http://www.w3.org/2000/svg" viewBox="229 93 141 154"><defs><linearGradient x1="100%" y1="57%" x2="6%" y2="55%" id="prefix-u5F-linearGradient-1"><stop stop-color="#A0A0A0" offset="0%"/><stop stop-color="#E7E7E7" offset="23%"/><stop stop-color="#C036F9" offset="60%"/><stop stop-color="#4401B5" offset="100%"/></linearGradient><linearGradient x1="97%" y1="61%" x2="5%" y2="36%" id="prefix-u5F-linearGradient-2"><stop stop-color="#BD38FB" offset="0%"/><stop stop-color="#4300B4" offset="48%"/><stop stop-color="#EEE" offset="82%"/><stop stop-color="#AFAFB3" offset="100%"/></linearGradient><linearGradient x1="65%" y1="16%" x2="33%" y2="85%" id="prefix-u5F-linearGradient-3"><stop stop-color="#4300B4" offset="0%"/><stop stop-color="#BD38FB" offset="100%"/></linearGradient></defs><path d="m313.5 97.083 42.581 24.584a28.002 28.002 0 0 1 13.648 19.82c-1.102.458-2.18.99-3.229 1.596l-42.581 24.584a28 28 0 0 0-14 24.249v49.168c0 1.498.12 2.978.352 4.43a28 28 0 0 1-24.771-1.597l-42.581-24.584a28.001 28.001 0 0 1-13.831-21.176 27.75 27.75 0 0 0 2.412-1.24l42.581-24.584a28 28 0 0 0 14-24.249V98.916c0-1.034-.057-2.059-.169-3.072a27.994 27.994 0 0 1 25.588 1.239Z" id="prefix-u5F-形状结合备份-4" fill="url(#prefix-u5F-linearGradient-3)"/></svg></svg></g>
            <g id="icon_name_and_slogan_gap">
            </g>
            <g class="name_and_slogan" id="name_and_slogan_id">
              <g class="name"><g id="nameDefaultGroup"><path d="M221.6 296 Q221.8 295.7 222.1 295.7 Q222.3 295.7 222.5 295.9 Q222.6 296 222.6 296.3 Q222.6 296.5 222.5 296.8 L222.1 297.6 Q220.7 300.2 218.7 301.7 Q216.6 303.2 213.8 303.2 Q210.6 303.2 208.3 301.9 Q206 300.5 204.7 298 Q203.5 295.5 203.5 292.1 Q203.5 288.5 204.8 285.6 Q206.1 282.7 208.5 281.1 Q210.9 279.4 214.1 279.4 Q216.3 279.4 218 280.1 Q219.7 280.8 220.7 281.9 Q221.6 283 221.6 284 Q221.6 285.1 221 285.7 Q220.3 286.3 219.6 286.3 Q218.8 286.3 218.4 285.8 Q217.8 285.3 217.8 284.4 L217.8 283.5 Q217.8 282.4 217 281.6 Q216.3 280.8 214.6 280.8 Q212.5 280.8 210.8 282 Q209 283.3 208 285.8 Q207 288.3 207 291.6 Q207 297.7 210.9 300.1 Q212.5 301.1 214.5 301.1 Q216.4 301.1 218.1 300.1 Q219.9 299.1 220.9 297.3 L221.6 296 M240.2 286.2 Q240.2 284.1 240 283.1 Q239.7 282.1 238.8 281.6 Q237.8 281.1 235.6 281.1 Q233.1 281.1 232 281.7 Q230.8 282.2 230.8 283.6 L230.8 285.2 Q230.8 285.3 230.4 286.4 Q230.2 287.1 228.4 287.1 Q227.6 287.1 227.1 286.6 Q226.6 286 226.6 285.1 Q226.6 284 227.5 282.7 Q228.6 281.1 231.1 280.3 Q233.5 279.4 236.1 279.4 Q239.2 279.4 241.3 280.8 Q243.4 282.2 243.6 285.2 L243.6 287.8 L243.7 299.1 Q243.7 300.6 244 301 Q244.1 301.1 244.3 301.1 Q244.4 301.1 244.8 301 L245.4 300.6 L245.8 300.5 Q246.5 300.5 246.5 301.2 Q246.5 301.6 246.3 301.9 Q245.8 302.5 244.8 302.9 Q243.8 303.4 242.8 303.4 Q241.4 303.4 240.8 302.5 Q240.5 302.2 240.4 301.4 L240.3 300.6 Q239 302 237.1 302.7 Q235.1 303.5 232.7 303.5 Q231.2 303.5 229.7 303.2 Q225.5 302.3 225.5 298.8 Q225.5 295.6 227.7 293.3 Q229.9 290.9 233.1 289.6 Q236.4 288.2 239.3 288 L240.3 287.9 L240.2 286.2 Z M229.3 297.9 Q229.3 299.8 230.5 300.7 Q231.7 301.6 233.5 301.6 Q235.2 301.6 237 300.9 Q238.7 300.2 239.5 299.3 L240.3 298.3 L240.3 289.2 Q238.3 289.3 235.7 290.6 Q233.1 291.8 231.2 293.7 Q229.3 295.6 229.3 297.9 M263.6 279.5 Q265.4 279.5 266.3 280.4 Q267.3 281.2 267.3 282.3 Q267.3 283.1 266.8 283.6 Q266.3 284.1 265.4 284.1 Q264.6 284.1 263.9 283.2 L263.4 282.4 Q262.9 281.9 262.3 281.9 Q261.3 281.9 260 283 Q258.7 284 257.7 285.7 Q256.7 287.3 256.7 288.8 L256.7 299.5 Q256.7 300.9 257.2 301.3 Q257.6 301.7 258.9 301.7 L260.8 301.7 Q261.5 301.7 261.5 302.3 Q261.5 302.8 260.8 302.8 L250.3 302.8 Q249.5 302.8 249.5 302.3 Q249.5 301.7 250.3 301.7 L251.1 301.7 Q252.6 301.7 253 301.2 Q253.5 300.7 253.5 299.2 L253.5 286.4 Q253.5 283.6 253 283.1 Q252.5 282.6 251.2 282.6 L250.3 282.6 Q249.9 282.6 249.7 282.4 Q249.5 282.2 249.5 281.9 Q249.5 281.6 249.7 281.4 Q250 281.2 250.4 281.2 L251.2 281.2 Q251.4 281.2 252.3 281 L254.4 280.6 Q254.8 280.5 255.3 280.2 Q255.8 279.9 255.8 279.8 L256.7 279.2 L256.7 285.2 Q258 283.2 258.9 282.1 Q259.7 281 260.9 280.3 Q262 279.5 263.6 279.5 M273 292 Q273 292.7 273.2 293.9 Q273.5 296.5 274.8 298.1 Q276.2 299.8 278.6 300.4 Q279.5 300.7 280.4 300.7 Q282.1 300.7 283.6 299.8 Q285.1 298.8 286.5 297.2 L287.2 296.4 Q287.5 296 287.8 296 Q288.1 296 288.1 296.4 Q288.1 296.6 288 296.9 L287.5 297.8 Q284.7 302.9 279.1 302.9 Q276.3 302.9 274.1 301.3 Q271.9 299.7 270.7 297.1 Q269.5 294.4 269.5 291.1 Q269.5 290.1 269.6 289.1 Q270.1 284.4 272.7 281.9 Q275.3 279.3 279.2 279 Q283.2 279 285.6 281.8 Q288 284.4 288.4 288.8 L288.5 289.8 L273.2 289.8 Q273.2 290.2 273.1 290.9 Q273 291.6 273 292 Z M279.2 280.7 Q277.8 280.8 276.5 281.8 Q275.2 282.8 274.4 284.3 Q273.6 285.8 273.4 287.3 L273.2 288.5 L284.8 288.5 Q284.4 284.9 283.2 282.7 Q282 280.5 279.2 280.7 M302.7 269.5 Q304.5 269.5 305.6 270.2 Q306.8 270.9 306.8 272.2 Q306.8 272.9 306.2 273.4 Q305.7 274 304.9 274 Q304.2 274 303.8 273.5 Q303.2 273 303.1 272 Q303 271.4 302.8 271.2 Q302.6 270.9 301.9 270.9 Q300.8 271.2 300.2 272.5 Q299.6 273.9 299.6 276.2 L299.6 279.6 L305.2 279.6 Q305.4 279.6 305.5 279.8 Q305.7 279.9 305.7 280.2 Q305.7 280.7 305.2 280.7 L299.6 280.7 L299.6 299.4 Q299.6 300.6 299.8 301 Q299.9 301.5 300.4 301.5 Q300.9 301.6 302.4 301.6 L304 301.6 Q304.6 301.6 304.6 302.3 Q304.6 302.8 304 302.8 L292.6 302.8 Q292.2 302.8 292 302.7 Q291.8 302.5 291.8 302.2 Q291.8 301.6 292.6 301.6 L294.1 301.6 Q295.1 301.6 295.6 301.5 Q296 301.3 296.2 300.8 Q296.3 300.4 296.3 299.2 L296.3 280.7 L292 280.7 Q291.5 280.7 291.5 280.1 Q291.5 279.6 291.9 279.6 L296.3 279.6 Q296.3 276.5 296.8 274.5 Q297.2 272.4 298.6 271.1 Q300 269.7 302.7 269.5 M324.6 279.5 Q326.4 279.5 327.3 280.4 Q328.3 281.2 328.3 282.3 Q328.3 283.1 327.8 283.6 Q327.3 284.1 326.4 284.1 Q325.6 284.1 324.9 283.2 L324.4 282.4 Q323.9 281.9 323.3 281.9 Q322.3 281.9 321 283 Q319.7 284 318.7 285.7 Q317.7 287.3 317.7 288.8 L317.7 299.5 Q317.7 300.9 318.2 301.3 Q318.6 301.7 319.9 301.7 L321.8 301.7 Q322.5 301.7 322.5 302.3 Q322.5 302.8 321.8 302.8 L311.3 302.8 Q310.5 302.8 310.5 302.3 Q310.5 301.7 311.3 301.7 L312.1 301.7 Q313.6 301.7 314 301.2 Q314.5 300.7 314.5 299.2 L314.5 286.4 Q314.5 283.6 314 283.1 Q313.5 282.6 312.2 282.6 L311.3 282.6 Q310.9 282.6 310.7 282.4 Q310.5 282.2 310.5 281.9 Q310.5 281.6 310.7 281.4 Q311 281.2 311.4 281.2 L312.2 281.2 Q312.4 281.2 313.3 281 L315.4 280.6 Q315.8 280.5 316.3 280.2 Q316.8 279.9 316.8 279.8 L317.7 279.2 L317.7 285.2 Q319 283.2 319.9 282.1 Q320.7 281 321.9 280.3 Q323 279.5 324.6 279.5 M334 292 Q334 292.7 334.2 293.9 Q334.5 296.5 335.8 298.1 Q337.2 299.8 339.6 300.4 Q340.5 300.7 341.4 300.7 Q343.1 300.7 344.6 299.8 Q346.1 298.8 347.5 297.2 L348.2 296.4 Q348.5 296 348.8 296 Q349.1 296 349.1 296.4 Q349.1 296.6 349 296.9 L348.5 297.8 Q345.7 302.9 340.1 302.9 Q337.3 302.9 335.1 301.3 Q332.9 299.7 331.7 297.1 Q330.5 294.4 330.5 291.1 Q330.5 290.1 330.6 289.1 Q331.1 284.4 333.7 281.9 Q336.3 279.3 340.2 279 Q344.2 279 346.6 281.8 Q349 284.4 349.4 288.8 L349.5 289.8 L334.2 289.8 Q334.2 290.2 334.1 290.9 Q334 291.6 334 292 Z M340.2 280.7 Q338.8 280.8 337.5 281.8 Q336.2 282.8 335.4 284.3 Q334.6 285.8 334.4 287.3 L334.2 288.5 L345.8 288.5 Q345.4 284.9 344.2 282.7 Q343 280.5 340.2 280.7 M356 292 Q356 292.7 356.2 293.9 Q356.5 296.5 357.8 298.1 Q359.2 299.8 361.6 300.4 Q362.5 300.7 363.4 300.7 Q365.1 300.7 366.6 299.8 Q368.1 298.8 369.5 297.2 L370.2 296.4 Q370.5 296 370.8 296 Q371.1 296 371.1 296.4 Q371.1 296.6 371 296.9 L370.5 297.8 Q367.7 302.9 362.1 302.9 Q359.3 302.9 357.1 301.3 Q354.9 299.7 353.7 297.1 Q352.5 294.4 352.5 291.1 Q352.5 290.1 352.6 289.1 Q353.1 284.4 355.7 281.9 Q358.3 279.3 362.2 279 Q366.2 279 368.6 281.8 Q371 284.4 371.4 288.8 L371.5 289.8 L356.2 289.8 Q356.2 290.2 356.1 290.9 Q356 291.6 356 292 Z M362.2 280.7 Q360.8 280.8 359.5 281.8 Q358.2 282.8 357.4 284.3 Q356.6 285.8 356.4 287.3 L356.2 288.5 L367.8 288.5 Q367.4 284.9 366.2 282.7 Q365 280.5 362.2 280.7 M390.5 287.2 Q390.2 287.2 390.1 286.6 Q389.5 283.8 387.5 282.2 Q385.6 280.6 383.2 280.6 Q381.1 280.6 379.7 281.9 Q378.3 283.1 378.3 284.8 Q378.3 286.2 379.1 287.3 Q379.9 288.3 381.4 288.8 L386 290.3 Q392.1 292.3 392.1 296.6 Q392.1 299 390.5 300.9 Q388.8 302.7 386.1 303.2 Q384.7 303.4 383.7 303.4 Q380.4 303.4 377.6 301.8 Q377.3 301.7 377.2 301.7 Q376.8 301.7 376.4 302 Q376 302.3 375.3 303 Q374.7 303.7 374.7 303.2 L374.7 295.9 Q374.7 295.3 374.8 295 Q375 294.6 375.2 294.6 Q375.5 294.6 375.7 295.3 Q376.1 297.4 376.8 298.5 Q377.5 299.6 378.3 300.1 Q379.1 300.5 380.5 301 Q381.3 301.3 381.7 301.5 Q382.9 302 384.2 302 Q386.1 302 387.3 300.8 Q388.5 299.6 388.5 297.8 Q388.5 297 388.1 296 Q387.5 295 386.5 294.3 Q385.6 293.6 383.9 293.1 L380 292 Q377.9 291.3 376.8 290.5 Q375.6 289.7 374.9 287.9 Q374.5 286.8 374.5 285.7 Q374.5 284 375.4 282.5 Q376.4 281.1 378.1 280.3 Q379.8 279.4 381.9 279.4 Q383.8 279.4 385 279.7 Q386.2 279.9 387.6 280.4 Q388.7 280.8 389.3 280.8 Q389.6 280.8 389.8 280.6 Q389.9 280.4 390.2 280 Q390.4 279.6 390.7 279.6 Q390.9 279.6 391.1 279.7 L391.1 285.8 Q391.1 286.5 391 286.8 Q390.8 287.2 390.5 287.2 " style="" fill="#000000" transform="matrix(1,0,0,1,0,0)"/></g></g>
              <g class="slogan"><g id="sloganDefaultGroup"/></g>
            </g>
            <g class="border">
            </g>
          </g>
          <defs id="defs">
            <mask xmlns="http://www.w3.org/2000/svg" id="mask">
                <rect id="showAll" fill="white" x="229" y="93" width="141" height="155"/>
                <rect id="hideNameBg" fill="black" x="0" y="0" width="0" height="0" stroke-width="2" stroke="black"/>
                <rect id="hideSloganBg" fill="black" x="0" y="0" width="0" height="0" stroke-width="2" stroke="black"/>
            </mask>
          
          </defs>
        </g>
        </svg>